<?xml version="1.0" encoding="UTF-8" standalone="no"?>
<svg width="600" height="600" viewBox="-44 211 600 600" xmlns="http://www.w3.org/2000/svg">
<path d="M 556.0,211.0 -44.0,211.0 -44.0,811.0 556.0,811.0 Z" fill="none" stroke="#767676" stroke-width="1" stroke-linejoin="round" stroke-linecap="round"/>\r
<path d="M -3.47781,673.032 -36.124,673.032 -36.1243,644.876 -38.6609,643.861 -38.6616,614.933 -36.1246,613.913 -36.1243,590.748 -38.6616,589.731 -38.6616,560.794 -36.1246,559.779 -36.1243,531.622 -4.1546,531.622 -4.1546,489.334 40.2522,489.334 21.152,482.757 20.5075,482.515 19.8442,482.224 19.2022,481.9 18.5811,481.544 17.9786,481.155 17.4055,480.742 16.8522,480.295 16.3263,479.824 15.828,479.329 15.3567,478.808 14.911,478.262 14.4956,477.695 14.11,477.107 13.7597,476.508 13.4372,475.885 13.1432,475.235 12.8861,474.578 12.6614,473.899 12.474,473.216 12.3213,472.514 12.2059,471.807 12.1254,471.066 12.0838,470.061 12.0838,377.054 12.0877,376.737 12.1015,376.366 12.1555,375.664 12.2462,374.968 12.3726,374.279 12.5367,373.589 12.7351,372.914 12.9666,372.256 13.2289,371.616 13.5246,370.988 13.8519,370.377 14.2123,369.78 14.5986,369.208 15.0086,368.663 15.4554,368.128 15.9352,367.61 16.424,367.134 16.9525,366.67 17.5008,366.236 18.0748,365.829 18.6698,365.452 19.2814,365.107 19.9308,364.786 20.5659,364.512 20.9651,364.359 41.0275,357.057 41.0304,355.05 27.4946,355.057 26.2553,354.982 25.3942,354.851 24.5934,354.673 23.8,354.439 23.04,354.157 22.3067,353.829 21.5958,353.452 20.9212,353.036 20.2689,352.572 19.6533,352.07 19.0743,351.533 18.5292,350.957 18.0235,350.348 17.5561,349.704 17.1271,349.024 16.75,348.328 16.4112,347.591 16.1213,346.83 15.8823,346.048 15.6964,345.25 15.5627,344.427 15.4842,343.578 15.4683,342.501 15.5077,341.281 15.5938,340.08 15.7258,338.893 15.9026,337.721 16.1253,336.554 16.3914,335.403 16.6995,334.271 17.0494,333.153 17.4417,332.049 17.8746,330.961 18.3437,329.898 18.8545,328.846 19.3995,327.82 19.9849,326.807 20.6009,325.823 21.257,324.853 21.9452,323.907 22.6652,322.985 23.4178,322.086 24.1993,321.214 25.015,320.361 25.858,319.536 26.734,318.734 27.6354,317.959 28.5593,317.215 29.5175,316.492 30.4963,315.801 31.5046,315.136 32.5304,314.503 33.5891,313.895 34.6607,313.322 35.761,312.776 36.8763,312.265 38.0172,311.783 39.1742,311.335 40.3565,310.918 41.5529,310.537 42.7683,310.189 43.9982,309.877 45.2472,309.6 46.5058,309.36 47.7825,309.156 49.0716,308.99 50.3765,308.861 51.6922,308.771 53.0166,308.721 52.6153,308.726 54.3245,307.018 457.676,307.018 459.384,308.726 458.986,308.721 460.308,308.771 461.621,308.861 462.924,308.989 464.213,309.155 465.493,309.359 466.757,309.601 468.006,309.878 469.234,310.19 470.45,310.538 471.644,310.919 472.82,311.333 473.981,311.783 475.12,312.263 476.244,312.779 477.338,313.321 478.418,313.899 479.468,314.502 480.498,315.137 481.504,315.801 482.484,316.494 483.438,317.213 484.368,317.962 485.266,318.734 486.142,319.536 486.984,320.36 487.797,321.21 488.582,322.086 489.335,322.985 490.057,323.909 490.743,324.852 491.395,325.817 492.016,326.808 492.598,327.816 493.146,328.847 493.656,329.896 494.127,330.964 494.558,332.048 494.95,333.151 495.301,334.271 495.609,335.406 495.875,336.554 496.097,337.715 496.274,338.891 496.406,340.077 496.492,341.278 496.532,342.501 496.516,343.575 496.437,344.429 496.304,345.247 496.117,346.052 495.881,346.823 495.593,347.581 495.256,348.316 494.873,349.024 494.451,349.694 493.984,350.338 493.469,350.959 492.928,351.531 492.342,352.075 491.733,352.571 491.084,353.033 490.402,353.453 489.697,353.827 488.958,354.158 488.203,354.438 487.422,354.669 486.608,354.851 485.756,354.981 484.508,355.057 470.978,355.047 470.973,357.057 491.035,364.359 491.432,364.511 492.077,364.789 492.717,365.106 493.33,365.452 493.93,365.832 494.503,366.239 495.047,366.67 495.568,367.127 496.072,367.617 496.542,368.125 496.985,368.654 497.4,369.206 497.785,369.775 498.148,370.377 498.473,370.984 498.772,371.618 499.033,372.254 499.266,372.917 499.462,373.583 499.626,374.272 499.754,374.967 499.846,375.679 499.899,376.365 499.913,376.748 499.916,377.054 499.916,470.058 499.875,471.063 499.793,471.811 499.679,472.515 499.526,473.216 499.336,473.908 499.114,474.577 498.857,475.235 498.565,475.88 498.241,476.507 497.892,477.104 497.504,477.695 497.087,478.265 496.645,478.807 496.175,479.326 495.676,479.822 495.149,480.294 494.6,480.737 494.025,481.153 493.424,481.541 492.801,481.898 492.154,482.224 491.49,482.516 490.846,482.758 471.748,489.334 516.155,489.334 516.154,531.622 548.124,531.622 548.125,559.778 550.662,560.795 550.662,589.731 548.125,590.747 548.125,613.906 550.66,614.922 550.662,643.858 548.125,644.875 548.124,673.032 515.478,673.032 515.478,714.982 -3.47797,714.982 Z" fill="none" stroke="#ff0000" stroke-width="1" stroke-linejoin="round" stroke-linecap="round"/>\r
<path d="M 55.7249,310.401 54.0334,312.093 53.0969,312.104 51.8719,312.15 50.658,312.233 49.456,312.351 48.2665,312.504 47.0904,312.692 45.9281,312.914 44.7805,313.169 43.6483,313.456 42.5321,313.775 41.4327,314.126 40.3506,314.508 39.2867,314.919 38.2416,315.361 37.2161,315.831 36.2107,316.329 35.2262,316.856 34.2633,317.409 33.3227,317.989 32.4051,318.595 31.5111,319.226 30.6415,319.882 29.797,320.562 28.9783,321.265 28.186,321.992 27.4208,322.74 26.6835,323.511 25.9747,324.302 25.2951,325.114 24.6454,325.945 24.0264,326.796 23.4387,327.666 22.883,328.553 22.3599,329.458 21.8703,330.38 21.4148,331.318 20.994,332.271 20.6087,333.24 20.2596,334.223 19.9474,335.219 19.6727,336.229 19.4362,337.251 19.2387,338.286 19.0809,339.331 18.9633,340.388 18.8868,341.454 18.8521,342.53 18.8647,343.394 18.9205,343.999 19.0164,344.591 19.1509,345.169 19.3229,345.731 19.5306,346.278 19.773,346.806 20.0485,347.314 20.3557,347.802 20.6934,348.267 21.0599,348.709 21.4541,349.126 21.8745,349.516 22.3197,349.879 22.7883,350.213 23.279,350.516 23.7903,350.787 24.3209,351.024 24.8694,351.227 25.4343,351.394 26.0143,351.523 26.6081,351.614 27.5986,351.674 55.7194,351.674 55.7823,351.677 55.8735,351.691 55.9604,351.716 56.0419,351.753 56.1858,351.856 56.2981,351.991 56.3723,352.154 56.3928,352.243 56.4013,354.336 56.3824,354.547 56.321,354.747 56.2207,354.929 56.0856,355.087 55.9196,355.215 55.7066,355.315 22.1429,367.531 21.8421,367.646 21.3474,367.859 20.8683,368.096 20.4052,368.357 19.9589,368.64 19.5298,368.944 19.1188,369.269 18.7263,369.614 18.3529,369.978 17.9993,370.359 17.6661,370.758 17.3539,371.173 17.0632,371.603 16.7949,372.047 16.5493,372.506 16.3271,372.977 16.129,373.46 15.9556,373.953 15.8074,374.457 15.6851,374.971 15.5893,375.492 15.5206,376.021 15.4796,376.557 15.4696,376.827 15.4668,377.065 15.4668,469.992 15.5007,470.813 15.5594,471.353 15.6462,471.885 15.7606,472.409 15.9017,472.924 16.0691,473.428 16.2621,473.922 16.4799,474.403 16.7221,474.872 16.9879,475.327 17.2766,475.767 17.5877,476.191 17.9205,476.6 18.2743,476.99 18.6486,477.363 19.0425,477.716 19.4556,478.049 19.8871,478.361 20.3365,478.651 20.8031,478.918 21.2862,479.162 21.7852,479.381 22.2994,479.574 55.716,491.08 55.8394,491.132 56.0197,491.247 56.1699,491.395 56.2861,491.57 56.364,491.767 56.3996,491.98 56.3881,492.174 56.3293,492.345 56.2297,492.491 56.0964,492.606 55.9359,492.683 55.8477,492.706 55.7237,492.717 -0.771729,492.717 -0.771729,531.96 53.0295,531.96 53.1349,531.967 53.2705,531.991 53.3992,532.034 53.5196,532.092 53.6305,532.165 53.7307,532.252 53.8187,532.351 53.8935,532.46 53.9536,532.58 53.9978,532.708 54.0247,532.842 54.0333,532.983 54.0226,533.123 53.9935,533.257 53.9474,533.384 53.8856,533.502 53.8093,533.611 53.7197,533.708 53.6183,533.794 53.5062,533.865 53.3848,533.922 53.2553,533.962 53.119,533.985 53.0172,533.99 11.0688,533.99 7.68585,535.005 -32.7413,535.005 -32.7413,562.069 -35.2786,563.084 -35.2786,587.442 -32.7413,588.456 -32.7413,616.197 -35.2786,617.218 -35.2782,641.57 -32.7413,642.585 -32.7413,669.649 7.68591,669.649 11.0689,670.664 53.695,670.664 53.8306,670.673 53.9653,670.7 54.0929,670.745 54.2121,670.805 54.3216,670.88 54.4202,670.969 54.5065,671.069 54.5793,671.18 54.6372,671.301 54.6791,671.43 54.7037,671.566 54.7096,671.707 54.6962,671.846 54.6648,671.979 54.6164,672.105 54.5525,672.222 54.4743,672.329 54.383,672.425 54.2801,672.508 54.1666,672.578 54.044,672.632 53.9135,672.67 53.7763,672.691 53.7057,672.694 -0.0950928,672.694 -0.0950928,711.599 512.095,711.599 512.095,672.694 458.294,672.694 458.224,672.691 458.087,672.67 457.956,672.632 457.833,672.578 457.72,672.508 457.617,672.425 457.526,672.329 457.448,672.222 457.384,672.105 457.335,671.979 457.304,671.846 457.29,671.707 457.296,671.566 457.321,671.43 457.363,671.301 457.421,671.18 457.494,671.069 457.58,670.969 457.678,670.88 457.788,670.805 457.907,670.745 458.035,670.7 458.169,670.673 458.305,670.664 500.931,670.664 504.314,669.649 544.741,669.649 544.741,642.585 547.279,641.569 547.278,617.212 544.741,616.197 544.741,588.456 547.279,587.442 547.279,563.084 544.741,562.069 544.741,535.005 504.314,535.005 500.931,533.99 458.983,533.99 458.881,533.985 458.745,533.962 458.615,533.922 458.494,533.865 458.382,533.794 458.28,533.708 458.191,533.611 458.114,533.502 458.053,533.384 458.007,533.257 457.977,533.123 457.967,532.983 457.975,532.842 458.002,532.708 458.047,532.58 458.107,532.46 458.181,532.351 458.269,532.252 458.37,532.165 458.48,532.092 458.601,532.034 458.73,531.991 458.865,531.967 458.971,531.96 512.772,531.96 512.772,492.717 456.276,492.717 456.152,492.706 456.064,492.683 455.904,492.606 455.77,492.491 455.671,492.345 455.612,492.174 455.6,491.98 455.636,491.767 455.714,491.57 455.83,491.395 455.98,491.247 456.161,491.132 456.284,491.08 489.701,479.574 490.215,479.381 490.714,479.162 491.197,478.918 491.664,478.651 492.113,478.361 492.544,478.049 492.958,477.716 493.352,477.363 493.726,476.99 494.08,476.6 494.412,476.191 494.723,475.767 495.012,475.327 495.278,474.872 495.52,474.403 495.738,473.922 495.931,473.428 496.098,472.924 496.24,472.409 496.354,471.885 496.441,471.353 496.499,470.813 496.533,469.992 496.533,377.065 496.53,376.827 496.521,376.557 496.479,376.021 496.411,375.492 496.315,374.971 496.193,374.457 496.044,373.953 495.871,373.46 495.673,372.977 495.451,372.506 495.205,372.047 494.937,371.603 494.646,371.173 494.334,370.758 494.001,370.359 493.647,369.978 493.274,369.614 492.881,369.269 492.47,368.944 492.041,368.64 491.595,368.357 491.132,368.096 490.653,367.859 490.158,367.646 489.857,367.531 456.293,355.315 456.08,355.215 455.914,355.087 455.779,354.929 455.679,354.747 455.618,354.547 455.599,354.336 455.607,352.243 455.628,352.154 455.702,351.991 455.814,351.856 455.958,351.753 456.04,351.716 456.127,351.691 456.218,351.677 456.281,351.674 484.401,351.674 485.392,351.614 485.986,351.523 486.566,351.394 487.131,351.227 487.679,351.024 488.21,350.787 488.721,350.516 489.212,350.213 489.68,349.879 490.126,349.516 490.546,349.126 490.94,348.709 491.307,348.267 491.644,347.802 491.952,347.314 492.227,346.806 492.469,346.278 492.677,345.731 492.849,345.169 492.984,344.591 493.08,343.999 493.135,343.394 493.148,342.53 493.113,341.454 493.037,340.388 492.919,339.331 492.761,338.286 492.564,337.251 492.327,336.229 492.053,335.219 491.74,334.223 491.391,333.24 491.006,332.271 490.585,331.318 490.13,330.38 489.64,329.458 489.117,328.553 488.561,327.666 487.974,326.796 487.355,325.945 486.705,325.114 486.025,324.302 485.317,323.511 484.579,322.74 483.814,321.992 483.022,321.265 482.203,320.562 481.359,319.882 480.489,319.226 479.595,318.595 478.677,317.989 477.737,317.409 476.774,316.856 475.789,316.329 474.784,315.831 473.758,315.361 472.713,314.919 471.649,314.508 470.567,314.126 469.468,313.775 468.352,313.456 467.22,313.169 466.072,312.914 464.91,312.692 463.734,312.504 462.544,312.351 461.342,312.233 460.128,312.15 458.903,312.104 457.967,312.093 456.275,310.401 Z" fill="none" stroke="#0008ff" stroke-width="1" stroke-linejoin="round" stroke-linecap="round"/>\r
<path d="M 56.4014,354.351 L 455.599,354.351" fill="none" stroke="#000" stroke-width="1" stroke-linejoin="round" stroke-linecap="round"/>
<path d="M 455.599,354.351 L 455.599,492.04" fill="none" stroke="#000" stroke-width="1" stroke-linejoin="round" stroke-linecap="round"/>
<path d="M 455.599,492.04 L 56.4014,492.04" fill="none" stroke="#000" stroke-width="1" stroke-linejoin="round" stroke-linecap="round"/>
<path d="M 56.4014,492.04 L 56.4014,354.351" fill="none" stroke="#000" stroke-width="1" stroke-linejoin="round" stroke-linecap="round"/>
<path d="M 457.967,312.093 L 457.967,351.674" fill="none" stroke="#000" stroke-width="1" stroke-linejoin="round" stroke-linecap="round"/>
<path d="M 54.0332,351.674 L 54.0332,312.093" fill="none" stroke="#000" stroke-width="1" stroke-linejoin="round" stroke-linecap="round"/>
<path d="M 54.0332,532.975 L 54.0332,492.717" fill="none" stroke="#000" stroke-width="1" stroke-linejoin="round" stroke-linecap="round"/>
<path d="M 457.967,492.717 L 457.967,532.975" fill="none" stroke="#000" stroke-width="1" stroke-linejoin="round" stroke-linecap="round"/>
<path d="M 458.982,533.99 L 53.0183,533.99" fill="none" stroke="#000" stroke-width="1" stroke-linejoin="round" stroke-linecap="round"/>
<path d="M 53.6949,670.664 L 458.305,670.664" fill="none" stroke="#000" stroke-width="1" stroke-linejoin="round" stroke-linecap="round"/>
<path d="M 54.7098,671.679 L 54.7098,711.599" fill="none" stroke="#000" stroke-width="1" stroke-linejoin="round" stroke-linecap="round"/>
<path d="M 457.29,711.599 L 457.29,671.679" fill="none" stroke="#000" stroke-width="1" stroke-linejoin="round" stroke-linecap="round"/>
<path d="M 7.68576,669.649 L 7.68576,535.005" fill="none" stroke="#000" stroke-width="1" stroke-linejoin="round" stroke-linecap="round"/>
<path d="M 504.314,535.005 L 504.314,669.649" fill="none" stroke="#000" stroke-width="1" stroke-linejoin="round" stroke-linecap="round"/>
<path d="M 11.0688,670.664 L 11.0688,533.99" fill="none" stroke="#000" stroke-width="1" stroke-linejoin="round" stroke-linecap="round"/>
<path d="M 500.931,533.99 L 500.931,670.664" fill="none" stroke="#000" stroke-width="1" stroke-linejoin="round" stroke-linecap="round"/>
<path d="M 458.982,533.99 L 458.982,563.422" fill="none" stroke="#000" stroke-width="1" stroke-linejoin="round" stroke-linecap="round"/>
<path d="M 458.982,587.103 L 458.982,617.551" fill="none" stroke="#000" stroke-width="1" stroke-linejoin="round" stroke-linecap="round"/>
<path d="M 458.982,641.232 L 458.982,670.664" fill="none" stroke="#000" stroke-width="1" stroke-linejoin="round" stroke-linecap="round"/>
<path d="M 53.0183,670.664 L 53.0183,641.232" fill="none" stroke="#000" stroke-width="1" stroke-linejoin="round" stroke-linecap="round"/>
<path d="M 53.0183,617.551 L 53.0183,587.103" fill="none" stroke="#000" stroke-width="1" stroke-linejoin="round" stroke-linecap="round"/>
<path d="M 53.0183,563.422 L 53.0183,533.99" fill="none" stroke="#000" stroke-width="1" stroke-linejoin="round" stroke-linecap="round"/>
</svg>
