<svg xmlns="http://www.w3.org/2000/svg" viewBox="0 0 872 600" width="590" height="600">
  <!-- 1. Outer Contour - Green stroke -->
  <path d="M98,71 L117.777,71 L88.1596,81.7798 Q82.2339,83.9365 78.617,89.1021 Q75,94.2677 75,100.5736 L75,237.899 Q75,244.301 78.7177,249.513 Q82.4354,254.725 88.4886,256.809 L116.633,266.5 L51,266.5 L51,329 L3.75,329 L3.75,370.615 L0,372.115 L0,414.885 L3.75,416.385 L3.75,450.615 L0,452.115 L0,494.885 L3.75,496.385 L3.75,538 L52,538 L52,600 L819,600 L819,538 L867.25,538 L867.25,496.385 L871,494.885 L871,452.115 L867.25,450.615 L867.25,416.385 L871,414.885 L871,372.115 L867.25,370.615 L867.25,329 L820,329 L820,266.5 L754.367,266.5 L782.511,256.809 Q788.565,254.725 792.282,249.513 Q796,244.301 796,237.899 L796,100.5736 Q796,94.2677 792.383,89.1021 Q788.766,83.9365 782.84,81.7798 L753.223,71 L773,71 Q780.456,71 785.728,65.7279 Q791,60.4557 791,53 Q791,31.8844 774.062,17.0637 Q758.169,3.15752 736.101,2.52969 L733.571,0 L137.429,0 L134.899,2.52969 Q112.831,3.15753 96.9379,17.0638 Q80,31.8844 80,53 Q80,60.4558 85.2721,65.7279 Q90.5442,71 98,71 Z" stroke="#46ba00" stroke-width="0.83" fill="#ffffff" stroke-linejoin="round"/>

  <!-- 2. Box Faces -->
  <g stroke="#46ba00" stroke-width="0.83" fill="#ffffff">
    <path id="knifeFace_F" d="M135.5,62 L725.5,62 L725.5,265.5 L135.5,265.5 L135.5,62 Z"/>
    <path id="knifeFace_FL" d="M135.5,265.5 A1.5,1.5 0 0 0 134.488,264.082 L85.116,247.082 A15,15 0 0 1 75,232.899 L75,95.574 A15,15 0 0 1 84.87,81.478 L134.513,63.41 A1.5,1.5 0 0 0 135.5,62 L135.5,265.5 Z"/>
    <path id="knifeFace_FR" d="M725.5,265.5 L725.5,62 A1.5,1.5 0 0 0 726.487,63.41 L776.13,81.478 A15,15 0 0 1 786,95.574 L786,232.899 A15,15 0 0 1 775.884,247.082 L726.512,264.082 A1.5,1.5 0 0 0 725.5,265.5 Z"/>
    <path id="knifeFace_FT" d="M132,2.5 L134.5,0 L726.5,0 L729,2.5 L729,61 L726.5,61 A1,1 0 0 0 725.5,62 L135.5,62 A1,1 0 0 0 134.5,61 L132,61 L132,2.5 Z"/>
    <path id="knifeFace_FTL" d="M132,61 L93,61 A13,13 0 0 1 80,48 A52,45.5 0 0 1 132,2.5 L132,61 Z"/>
    <path id="knifeFace_FTR" d="M729,61 L729,2.5 A52,45.5 0 0 1 781,48 A13,13 0 0 1 768,61 L729,61 Z"/>
    <path id="knifeFace_FB" d="M130.5,327.5 A1.5,1.5 0 0 0 132,326 L132,266.5 L134.5,266.5 A1,1 0 0 0 135.5,265.5 L725.5,265.5 A1,1 0 0 0 726.5,266.5 L729,266.5 L729,326 A1.5,1.5 0 0 0 730.5,327.5 L130.5,327.5 Z"/>
    <path id="knifeFace_FBL" d="M132,326 A1.5,1.5 0 0 0 130.5,324.5 L129,324.5 L51,324.5 L51,266.5 L132,266.5 L132,326 Z"/>
    <path id="knifeFace_FBR" d="M729,326 L729,266.5 L810,266.5 L810,324.5 L732,324.5 L730.5,324.5 A1.5,1.5 0 0 0 729,326 Z"/>
    <path id="knifeFace_HB" d="M729.5,529.5 A1.5,1.5 0 0 0 728,531 L728,590 L133,590 L133,531 A1.5,1.5 0 0 0 131.5,529.5 L729.5,529.5 Z"/>
    <path id="knifeFace_HBL" d="M133,590 L52,590 L52,532.5 L130,532.5 L131.5,532.5 A1.5,1.5 0 0 0 133,531 L133,590 Z"/>
    <path id="knifeFace_HBR" d="M728,590 L728,531 A1.5,1.5 0 0 0 729.5,532.5 L731,532.5 L809,532.5 L809,590 L728,590 Z"/>
    <path id="knifeFace_HL" d="M63.5,528 L3.75,528 L3.75,488 L0,486.5 L0,450.5 L3.75,449 L3.75,408 L0,406.5 L0,370.5 L3.75,369 L3.75,329 L63.5,329 L63.5,528 Z"/>
    <path id="knifeFace_HR" d="M797.5,528 L797.5,329 L857.25,329 L857.25,369 L861,370.5 L861,406.5 L857.25,408 L857.25,449 L861,450.5 L861,486.5 L857.25,488 L857.25,528 L797.5,528 Z"/>
    <path id="knifeFace_LL" d="M63.5,329 L68.5,327.5 L68.5,529.5 L63.5,528 L63.5,329 Z"/>
    <path id="knifeFace_RR" d="M797.5,329 L797.5,528 L792.5,529.5 L792.5,327.5 L797.5,329 Z"/>
    <path id="knifeFace_L" d="M68.5,327.5 L130.5,327.5 L130.5,529.5 L68.5,529.5 L68.5,327.5 Z"/>
    <path id="knifeFace_R" d="M730.5,327.5 L792.5,327.5 L792.5,529.5 L730.5,529.5 L730.5,327.5 Z"/>
    <path id="knifeFace_H" d="M130.5,327.5 L730.5,327.5 L730.5,371 A2.5,2.5 0 0 0 728,368.5 L728,368.5 A2.5,2.5 0 0 0 725.5,371 L725.5,406 A2.5,2.5 0 0 0 728,408.5 L728,408.5 A2.5,2.5 0 0 0 730.5,406 L730.5,451 A2.5,2.5 0 0 0 728,448.5 L728,448.5 A2.5,2.5 0 0 0 725.5,451 L725.5,486 A2.5,2.5 0 0 0 728,488.5 L728,488.5 A2.5,2.5 0 0 0 730.5,486 L730.5,529.5 L130.5,529.5 L130.5,486 A2.5,2.5 0 0 0 133,488.5 L133,488.5 A2.5,2.5 0 0 0 135.5,486 L135.5,451 A2.5,2.5 0 0 0 133,448.5 L133,448.5 A2.5,2.5 0 0 0 130.5,451 L130.5,406 A2.5,2.5 0 0 0 133,408.5 L133,408.5 A2.5,2.5 0 0 0 135.5,406 L135.5,371 A2.5,2.5 0 0 0 133,368.5 L133,368.5 A2.5,2.5 0 0 0 130.5,371 L130.5,327.5 Z"/>
  </g>

  <!-- 3. Cut Lines - Blue -->
  <path d="M132,2.5 L134.5,0 L726.5,0 L729,2.5 A52,45.5 0 0 1 781,48 A13,13 0 0 1 768,61 L729,61 L726.5,61 A1,1 0 0 0 725.5,62 A1.5,1.5 0 0 0 726.487,63.41 L776.13,81.478 A15,15 0 0 1 786,95.574 L786,232.899 A15,15 0 0 1 775.884,247.082 L726.512,264.082 A1.5,1.5 0 0 0 725.5,265.5 A1,1 0 0 0 726.5,266.5 L729,266.5 L810,266.5 L810,324.5 L732,324.5 L730.5,324.5 A1.5,1.5 0 0 0 729,326 A1.5,1.5 0 0 0 730.5,327.5 L792.5,327.5 L797.5,329 L857.25,329 L857.25,369 L861,370.5 L861,406.5 L857.25,408 L857.25,449 L861,450.5 L861,486.5 L857.25,488 L857.25,528 L797.5,528 L792.5,529.5 L730.5,529.5 L729.5,529.5 A1.5,1.5 0 0 0 728,531 A1.5,1.5 0 0 0 729.5,532.5 L731,532.5 L809,532.5 L809,590 L728,590 L52,590 L52,532.5 L130,532.5 L131.5,532.5 A1.5,1.5 0 0 0 133,531 A1.5,1.5 0 0 0 131.5,529.5 L68.5,529.5 L63.5,528 L3.75,528 L3.75,488 L0,486.5 L0,450.5 L3.75,449 L3.75,408 L0,406.5 L0,370.5 L3.75,369 L3.75,329 L63.5,329 L68.5,327.5 L130.5,327.5 L130.5,327.5 A1.5,1.5 0 0 0 132,326 A1.5,1.5 0 0 0 130.5,324.5 L129,324.5 L51,324.5 L51,266.5 L132,266.5 L134.5,266.5 A1,1 0 0 0 135.5,265.5 A1.5,1.5 0 0 0 134.488,264.082 L85.116,247.082 A15,15 0 0 1 75,232.899 L75,95.574 A15,15 0 0 1 84.87,81.478 L134.513,63.41 A1.5,1.5 0 0 0 135.5,62 A1,1 0 0 0 134.5,61 L132,61 L93,61 A13,13 0 0 1 80,48 A52,45.5 0 0 1 132,2.5 Z" stroke="#2028b0" stroke-width="0.83" fill="none" stroke-linejoin="round"/>

  <!-- 4. Fold Lines - Red dashed -->
  <g stroke="#fa0000" stroke-width="0.83" stroke-dasharray="0.62 0.41" stroke-linecap="round">
    <line x1="135.5" y1="62" x2="725.5" y2="62"/>
    <line x1="725.5" y1="62" x2="725.5" y2="265.5"/>
    <line x1="725.5" y1="265.5" x2="135.5" y2="265.5"/>
    <line x1="135.5" y1="265.5" x2="135.5" y2="62"/>
    <line x1="729" y1="2.5" x2="729" y2="61"/>
    <line x1="132" y1="61" x2="132" y2="2.5"/>
    <line x1="132" y1="326" x2="132" y2="266.5"/>
    <line x1="729" y1="266.5" x2="729" y2="326"/>
    <line x1="730.5" y1="327.5" x2="130.5" y2="327.5"/>
    <line x1="131.5" y1="529.5" x2="729.5" y2="529.5"/>
    <line x1="133" y1="531" x2="133" y2="590"/>
    <line x1="728" y1="590" x2="728" y2="531"/>
    <line x1="63.5" y1="528" x2="63.5" y2="329"/>
    <line x1="797.5" y1="329" x2="797.5" y2="528"/>
    <line x1="68.5" y1="529.5" x2="68.5" y2="327.5"/>
    <line x1="792.5" y1="327.5" x2="792.5" y2="529.5"/>
    <line x1="730.5" y1="327.5" x2="730.5" y2="371"/>
    <line x1="730.5" y1="406" x2="730.5" y2="451"/>
    <line x1="730.5" y1="486" x2="730.5" y2="529.5"/>
    <line x1="130.5" y1="529.5" x2="130.5" y2="486"/>
    <line x1="130.5" y1="451" x2="130.5" y2="406"/>
    <line x1="130.5" y1="371" x2="130.5" y2="327.5"/>
  </g>

  <!-- 5. Glue Tabs - Blue stroke white fill -->
  <g stroke="#2028b0" stroke-width="0.83" fill="#ffffff" stroke-linejoin="round">
    <path d="M130.5,371 A2.5,2.5 0 0 1 133,368.5 L133,368.5 A2.5,2.5 0 0 1 135.5,371 L135.5,406 A2.5,2.5 0 0 1 133,408.5 L133,408.5 A2.5,2.5 0 0 1 130.5,406 L130.5,371 Z"/>
    <path d="M730.5,371 A2.5,2.5 0 0 0 728,368.5 L728,368.5 A2.5,2.5 0 0 0 725.5,371 L725.5,406 A2.5,2.5 0 0 0 728,408.5 L728,408.5 A2.5,2.5 0 0 0 730.5,406 L730.5,371 Z"/>
    <path d="M130.5,451 A2.5,2.5 0 0 1 133,448.5 L133,448.5 A2.5,2.5 0 0 1 135.5,451 L135.5,486 A2.5,2.5 0 0 1 133,488.5 L133,488.5 A2.5,2.5 0 0 1 130.5,486 L130.5,451 Z"/>
    <path d="M730.5,451 A2.5,2.5 0 0 0 728,448.5 L728,448.5 A2.5,2.5 0 0 0 725.5,451 L725.5,486 A2.5,2.5 0 0 0 728,488.5 L728,488.5 A2.5,2.5 0 0 0 730.5,486 L730.5,451 Z"/>
  </g>
</svg>
